<svg width="256" height="183" viewBox="0 0 256 183" fill="none" xmlns="http://www.w3.org/2000/svg">
<path d="M173.626 0.891357C172.521 1.44351 170.664 2.09604 169.51 2.39722C166.899 3.09995 165.594 5.15797 166.046 7.76813C166.448 9.67555 168.405 11.4826 170.162 11.4826C170.815 11.4826 172.17 12.0347 173.174 12.7375C174.178 13.4402 175.433 13.9923 175.935 13.9923C176.989 13.9923 176.788 13.39 180.653 29.2517C183.363 40.4453 183.464 41.1982 182.661 41.8005C182.008 42.2523 181.858 42.8546 182.058 43.9087L182.36 45.3644L177.29 46.8201L172.27 48.2757L172.571 49.7816C173.324 53.496 173.977 55.1525 174.629 55.1525C175.031 55.1525 175.483 55.7046 175.684 56.4074C175.834 57.1101 176.437 57.9634 176.938 58.365C177.44 58.7164 177.942 59.5195 177.993 60.1218C178.143 61.2261 176.135 61.9289 139.744 74.2267C118.612 81.3042 100.792 87.3277 100.14 87.5285C99.0855 87.8296 98.9852 87.7794 99.2361 86.7755C99.5875 85.3701 98.8346 83.2619 97.9311 83.2619C97.4793 83.2619 96.8268 81.8062 96.124 79.3968C95.0699 75.7828 95.0197 75.4816 95.8228 74.8792C96.375 74.4777 96.626 73.8753 96.4252 73.2228C96.1742 72.2691 96.5758 71.9679 98.9852 70.8636C107.87 66.9484 111.634 64.4888 111.634 62.5312C111.634 61.0755 108.974 58.7666 106.816 58.365C104.758 57.9634 102.298 58.5156 90.9539 61.8787C86.7877 63.1335 83.4748 63.7359 79.2584 64.0873C72.1809 64.6394 70.8256 65.3421 70.5746 68.655C70.424 70.5123 70.6248 70.964 72.3314 72.7208C74.791 75.1302 77.351 75.833 83.0732 75.6824C86.8881 75.5318 87.641 75.6824 88.1932 76.4353C88.5445 76.9373 89.2473 77.2384 89.7492 77.138C90.5021 77.0377 90.9037 77.5898 91.5562 79.5474C92.0582 80.9529 92.6104 82.8101 92.7609 83.6132C93.0621 85.0187 92.9617 85.1693 91.6566 85.4203C90.0504 85.7214 89.3979 87.1269 90.1508 88.4822C90.6527 89.3857 92.8111 89.5865 93.3131 88.7833C93.7648 88.0304 94.568 88.181 94.568 88.9841C94.568 89.3857 91.3555 92.3472 87.4402 95.6099C83.4748 98.8726 79.8607 101.834 79.409 102.236C78.7063 102.838 78.1541 102.587 74.8914 100.077C70.6248 96.7644 62.5434 92.6986 58.0258 91.5441C56.3191 91.0923 52.8557 90.5904 50.3961 90.3394C28.009 88.2814 8.08144 101.884 1.40547 123.669C0.150586 127.835 0 128.889 0 136.469C0 144.048 0.150586 145.153 1.35527 149.168C6.52539 166.034 19.526 178.181 36.492 181.996C42.2143 183.251 51.5004 183.05 57.4736 181.494C75.4937 176.776 88.6449 162.37 91.8574 143.797C92.3092 141.288 92.7107 139.179 92.8111 139.079C92.9115 138.979 97.2283 138.627 102.449 138.226C112.387 137.573 114.194 137.121 117.055 134.712C118.662 133.357 119.866 133.256 121.673 134.411C122.276 134.812 122.276 135.013 121.523 135.867C119.615 137.975 120.971 140.986 123.832 140.986C126.442 140.986 139.894 136.971 141.149 135.816C142.605 134.461 142.605 132.252 141.149 131.249C139.694 130.194 138.188 130.245 134.272 131.399L131.11 132.403L125.94 130.345L120.82 128.337L120.519 124.974C120.368 123.167 120.318 121.661 120.318 121.611C120.368 121.561 134.222 111.371 151.138 98.8726C168.004 86.4242 181.958 76.2345 182.058 76.2345C182.209 76.2345 182.56 76.9373 182.862 77.7906C183.263 78.9451 183.263 79.5976 182.862 80.0494C182.209 80.8525 182.912 82.3584 184.468 83.4626C185.672 84.2658 188.785 94.9574 187.931 95.2084C186.074 95.8609 179.247 100.931 176.437 103.792C154.1 126.43 160.374 163.876 188.835 178.131C195.21 181.293 201.384 182.749 209.013 182.749C213.029 182.799 216.593 182.498 218.902 181.996C235.818 178.181 248.919 165.984 253.988 149.269C255.243 145.203 255.394 143.998 255.394 136.72C255.444 129.793 255.293 128.136 254.289 124.673C248.417 104.093 230.698 90.3394 210.017 90.239C204.245 90.1888 200.279 90.6908 195.962 91.9958L193.704 92.6484L192.348 87.6289C191.395 84.065 191.144 82.3584 191.445 81.7058C192.148 80.4007 192.047 78.4431 191.244 77.5898C190.843 77.2384 189.387 72.4197 187.981 66.9986C185.974 59.2685 185.522 56.9093 185.974 56.3572C186.325 55.9556 186.425 54.9015 186.275 53.8976C186.024 52.2412 186.074 52.0906 188.483 50.7855C190.943 49.4804 192.449 47.573 192.449 45.8162C192.449 43.8586 190.742 39.5919 189.939 39.5919C189.337 39.5919 188.433 36.6304 185.773 25.8886L182.36 12.2355L183.414 10.2277C185.321 6.66382 184.016 2.69839 180.352 0.841171C178.143 -0.313324 176.135 -0.263138 173.626 0.891357ZM184.869 59.0175C188.383 72.4699 189.437 76.6361 189.437 77.0878C189.437 77.6902 184.92 79.3968 184.468 78.9451C184.317 78.7945 183.916 77.8408 183.614 76.8369C183.313 75.7326 182.811 74.9796 182.36 75.0298C181.807 75.08 166.197 86.4744 124.334 117.445L119.716 120.858L118.461 119.202L117.206 117.545L122.326 113.781C125.137 111.672 139.543 101.131 154.3 90.2892C169.058 79.447 181.356 70.4119 181.556 70.2111C182.209 69.6589 180.954 65.5429 180.251 65.8441C179.9 65.9445 162.03 71.9679 140.497 79.2462C118.963 86.4744 101.093 92.548 100.742 92.7488C100.34 92.9496 101.194 96.2625 103.653 103.842C105.561 109.765 107.117 114.684 107.117 114.734C107.117 115.035 103.854 115.839 103.603 115.537C103.402 115.286 101.846 110.618 100.089 105.097C98.3326 99.5753 96.7264 94.857 96.5256 94.6562C96.124 94.1543 51.7514 130.847 50.9482 132.303C50.1953 133.809 51.3498 135.666 53.207 135.867C54.0102 135.967 64.3002 133.959 75.9957 131.5C87.6912 129.04 97.3789 127.032 97.4291 127.133C97.5295 127.183 97.7303 127.936 97.8809 128.789C98.1318 130.044 97.9812 130.395 97.2785 130.596C93.3131 131.751 45.0252 140.986 44.0715 140.786C42.3146 140.334 41.3609 139.079 41.3609 137.272C41.3609 135.114 40.859 135.565 70.8256 110.669C90.452 94.4052 95.5719 89.9378 95.5719 89.0343C95.5719 87.4783 97.3789 86.8257 98.2824 88.0304C98.8848 88.8335 102.097 87.8798 139.192 75.4816L179.498 62.0794L179.247 60.3728C178.946 58.7164 179.047 58.6662 181.305 57.9634C182.611 57.5619 183.815 57.2105 184.016 57.2105C184.217 57.1603 184.618 58.0136 184.869 59.0175ZM180.603 68.3037C180.753 68.9562 180.703 69.6087 180.502 69.7593C179.448 70.713 116.855 116.541 116.353 116.742C116.001 116.843 115.198 116.592 114.496 116.14C113.843 115.738 112.136 115.236 110.731 115.035L108.171 114.734L105.561 106.653C102.097 95.8609 101.495 93.7527 101.746 93.5017C101.997 93.2005 179.047 67.2496 179.699 67.2496C180.051 67.1994 180.402 67.7013 180.603 68.3037ZM95.0197 78.8447C96.4754 83.3623 96.4754 83.814 95.2205 84.316C94.1664 84.7175 94.0158 84.4666 92.8111 80.7019C92.1084 78.4933 91.5562 76.5859 91.5562 76.4855C91.5562 76.3349 92.6605 75.9836 93.6645 75.7828C93.815 75.7828 94.4174 77.138 95.0197 78.8447ZM99.2863 105.95C101.093 111.522 102.499 116.19 102.348 116.29C102.097 116.541 90.5523 119.904 89.95 119.904C89.699 119.904 88.9963 118.65 88.2935 117.094C87.5908 115.537 85.9846 112.727 84.7297 110.769C82.4207 107.356 82.4207 107.255 83.3242 106.352C84.3281 105.348 95.7727 95.8107 95.9232 95.8107C95.9734 95.8107 97.5295 100.378 99.2863 105.95ZM55.767 103.39C57.6242 103.993 60.2846 104.996 61.5896 105.699C64.3504 107.054 68.9684 110.317 68.9684 110.769C68.9182 110.97 63.1457 115.839 56.1184 121.661C49.0408 127.434 42.6158 132.955 41.8127 133.859C39.7547 136.168 39.7547 138.878 41.9131 140.685C42.7664 141.388 43.8205 141.99 44.2723 141.99C44.724 141.99 49.7436 141.639 55.4156 141.288C61.0877 140.886 68.4162 140.434 71.7291 140.234C75.042 140.083 78.4051 139.782 79.2082 139.631L80.6137 139.38L80.2623 141.539C78.5557 152.531 71.1268 162.52 61.1881 167.339C49.8439 172.911 37.1445 172.108 27.0051 165.181C17.3174 158.655 11.7457 148.114 11.7457 136.519C11.7457 130.496 12.6994 126.38 15.3096 120.959C16.966 117.545 18.2209 115.889 21.7346 112.375C27.507 106.552 33.6309 103.44 41.6119 102.135C44.6236 101.684 52.4039 102.386 55.767 103.39ZM218.099 103.089C227.084 105.398 236.119 112.777 240.084 120.959C242.694 126.38 243.648 130.496 243.648 136.519C243.648 145.554 240.586 153.385 234.613 159.76C223.67 171.355 208.361 174.266 194.206 167.339C185.823 163.273 179.498 156.045 176.587 147.211C175.282 143.195 175.131 142.091 175.131 136.218C175.182 130.395 175.332 129.241 176.587 125.677C178.294 120.758 180.703 116.692 184.167 112.977C187.53 109.363 191.345 106.552 191.696 107.456C191.796 107.807 193.603 114.534 195.712 122.414C199.326 136.168 200.279 138.677 202.137 139.581C202.588 139.782 203.391 140.234 203.893 140.485C207.658 142.693 209.063 143.095 211.172 142.392C214.886 141.237 216.593 136.971 214.786 133.457C213.28 130.496 208.411 129.442 205.801 131.5C204.797 132.252 204.446 132.353 204.245 131.851C203.09 128.387 197.017 104.695 197.217 104.394C197.468 103.942 202.638 102.487 205.249 102.135C208.009 101.734 214.886 102.286 218.099 103.089ZM75.6945 118.85C78.6059 123.669 79.2082 123.117 66.7096 126.731C60.6359 128.488 55.516 129.843 55.3654 129.793C55.1646 129.743 59.0297 126.38 63.8986 122.364C70.424 116.943 72.8836 115.136 73.3855 115.487C73.6867 115.788 74.7408 117.294 75.6945 118.85ZM114.194 117.043C117.306 118.7 119.264 121.661 119.465 125.024C119.615 127.685 119.615 127.685 119.164 125.577C117.959 120.055 114.295 116.742 109.325 116.742C100.842 116.742 96.626 126.38 102.248 132.805C105.812 136.87 111.885 137.071 116.052 133.307C116.855 132.554 117.156 132.453 117.156 133.005C117.156 133.959 114.245 135.867 111.835 136.519C106.314 138.075 100.089 134.009 98.8346 128.036C98.3326 125.627 99.4369 121.862 101.194 119.653C104.306 115.889 109.878 114.785 114.194 117.043ZM101.093 118.399C99.7381 119.754 98.0816 123.167 98.0816 124.573C98.0816 125.577 97.7303 125.827 95.5217 126.329C94.1162 126.681 92.6605 126.932 92.3092 126.932C91.5562 126.932 89.7492 121.511 90.3014 120.959C90.6025 120.708 100.642 117.595 101.746 117.445C101.947 117.395 101.646 117.846 101.093 118.399ZM110.43 119.503C110.028 121.912 109.777 122.414 108.924 122.414C108.271 122.414 107.016 118.148 107.518 117.646C107.669 117.495 108.472 117.395 109.275 117.395C110.731 117.395 110.731 117.445 110.43 119.503ZM113.743 118.8L115.148 119.704L113.19 121.611C112.036 122.715 111.132 123.268 110.932 122.966C110.58 122.414 111.584 117.897 112.086 117.897C112.237 117.897 112.99 118.298 113.743 118.8ZM106.816 119.754C107.016 120.557 107.267 121.561 107.418 122.013C107.82 123.418 106.464 123.067 104.808 121.36C103.402 119.854 103.402 119.804 104.306 119.101C105.762 118.047 106.464 118.248 106.816 119.754ZM116.905 121.962C117.357 122.816 117.658 123.569 117.557 123.619C117.457 123.669 116.403 124.02 115.198 124.372C112.036 125.275 111.434 124.422 113.642 122.163C114.596 121.21 115.499 120.406 115.75 120.406C115.951 120.406 116.503 121.109 116.905 121.962ZM104.557 122.615C106.464 124.623 106.113 125.075 103.202 124.322C100.993 123.769 100.792 123.468 101.595 121.862C102.298 120.557 102.649 120.657 104.557 122.615ZM111.283 124.623C111.936 125.275 116.001 127.233 120.87 129.191L129.353 132.654L127.396 133.307C124.334 134.411 123.38 134.21 116.704 131.5C112.688 129.843 110.078 129.04 109.325 129.241C108.572 129.442 107.87 129.191 107.167 128.488C105.912 127.233 105.812 126.028 106.916 124.522C107.92 123.067 109.878 123.117 111.283 124.623ZM79.2082 126.781C79.5596 128.136 79.7603 129.341 79.5596 129.492C79.0576 130.044 54.5121 135.063 53.3074 134.863C52.1027 134.712 51.5506 133.206 52.2533 132.152C52.6549 131.6 75.7949 124.623 77.602 124.472C78.2043 124.422 78.6561 125.125 79.2082 126.781ZM104.958 126.279C105.109 126.631 104.306 127.082 103.252 127.384C100.591 128.136 100.591 128.136 100.591 126.229V124.472L102.7 125.075C103.854 125.426 104.858 125.978 104.958 126.279ZM118.16 125.677C118.16 127.133 118.21 127.133 116.152 126.229L114.496 125.577L115.951 125.024C118.059 124.271 118.16 124.271 118.16 125.677ZM105.812 128.337C105.962 128.588 105.31 129.542 104.356 130.445C102.649 132.102 102.599 132.102 101.846 131.148C100.792 129.743 100.943 129.09 102.499 128.538C104.205 127.885 105.46 127.835 105.812 128.337ZM106.966 132.052C106.715 133.256 106.414 134.26 106.314 134.361C106.213 134.511 104.155 133.558 103.653 133.106C103.302 132.805 106.715 129.442 107.167 129.693C107.368 129.843 107.267 130.897 106.966 132.052ZM110.078 131.801C110.881 134.712 110.781 134.963 108.874 134.963C107.92 134.963 107.117 134.863 107.117 134.762C107.117 134.712 107.368 133.859 107.669 132.905C107.97 131.951 108.271 130.897 108.422 130.546C108.773 129.341 109.576 129.944 110.078 131.801ZM114.144 132.202C114.746 132.955 114.746 133.156 113.893 133.758C112.387 134.863 111.835 134.612 111.233 132.503C110.881 131.449 110.63 130.445 110.63 130.245C110.63 129.743 113.391 131.299 114.144 132.202ZM100.491 133.457C101.395 134.561 102.85 135.816 103.704 136.268C104.507 136.72 105.109 137.121 105.009 137.222C104.958 137.272 102.097 137.523 98.7342 137.724L92.5602 138.075V135.314V132.554L94.9695 132.052C98.5836 131.299 98.6338 131.299 100.491 133.457ZM80.5133 136.87V138.828L70.8758 139.43C65.5551 139.732 59.7324 140.083 57.9254 140.234C55.8172 140.384 59.0799 139.531 67.4625 137.774C74.4898 136.268 80.3125 135.063 80.4129 135.013C80.4631 134.963 80.5133 135.816 80.5133 136.87Z" fill="black"/>
<path d="M44.1719 134.762C42.5656 136.368 43.6197 138.979 45.8785 138.979C48.5389 138.979 49.7937 136.469 47.9867 134.812C46.8322 133.758 45.1758 133.708 44.1719 134.762Z" fill="black"/>
<path d="M107.719 125.024C106.213 126.53 107.87 128.889 109.727 127.885C110.831 127.283 110.932 125.125 109.827 124.723C108.723 124.322 108.422 124.322 107.719 125.024Z" fill="black"/>
</svg>
