<svg width="23" height="30" viewBox="0 0 23 30" fill="none" xmlns="http://www.w3.org/2000/svg">
<path fill-rule="evenodd" clip-rule="evenodd" d="M0.25 6.42857C0.25 6.03408 0.514613 5.71429 0.841029 5.71429H22.1181C22.4445 5.71429 22.7091 6.03408 22.7091 6.42857C22.7091 6.82306 22.4445 7.14286 22.1181 7.14286H0.841029C0.514613 7.14286 0.25 6.82306 0.25 6.42857Z" fill="#BBA572"/>
<path fill-rule="evenodd" clip-rule="evenodd" d="M9.11543 1.42857C8.64518 1.42857 8.19419 1.65434 7.86167 2.0562C7.52915 2.45806 7.34234 3.00311 7.34234 3.57143V6.42857C7.34234 6.82306 7.07773 7.14286 6.75132 7.14286C6.4249 7.14286 6.16029 6.82306 6.16029 6.42857V3.57143C6.16029 2.62423 6.47163 1.71582 7.02583 1.04605C7.58003 0.376274 8.33168 0 9.11543 0H13.8437C14.6274 0 15.3791 0.376274 15.9333 1.04605C16.4875 1.71582 16.7988 2.62423 16.7988 3.57143V6.42857C16.7988 6.82306 16.5342 7.14286 16.2078 7.14286C15.8814 7.14286 15.6167 6.82306 15.6167 6.42857V3.57143C15.6167 3.00311 15.4299 2.45806 15.0974 2.0562C14.7649 1.65434 14.3139 1.42857 13.8437 1.42857H9.11543ZM3.20514 5.71429C3.53156 5.71429 3.79617 6.03408 3.79617 6.42857V26.4286C3.79617 26.9969 3.98298 27.5419 4.3155 27.9438C4.64802 28.3457 5.09901 28.5714 5.56926 28.5714H17.3898C17.8601 28.5714 18.3111 28.3457 18.6436 27.9438C18.9761 27.5419 19.1629 26.9969 19.1629 26.4286V6.42857C19.1629 6.03408 19.4275 5.71429 19.7539 5.71429C20.0804 5.71429 20.345 6.03408 20.345 6.42857V26.4286C20.345 27.3758 20.0336 28.2842 19.4794 28.954C18.9252 29.6237 18.1736 30 17.3898 30H5.56926C4.78551 30 4.03385 29.6237 3.47966 28.954C2.92546 28.2842 2.61411 27.3758 2.61411 26.4286V6.42857C2.61411 6.03408 2.87873 5.71429 3.20514 5.71429Z" fill="#BBA572"/>
<path fill-rule="evenodd" clip-rule="evenodd" d="M9.11543 12.8571C9.44185 12.8571 9.70646 13.1769 9.70646 13.5714V22.1429C9.70646 22.5373 9.44185 22.8571 9.11543 22.8571C8.78901 22.8571 8.5244 22.5373 8.5244 22.1429V13.5714C8.5244 13.1769 8.78901 12.8571 9.11543 12.8571Z" fill="#BBA572"/>
<path fill-rule="evenodd" clip-rule="evenodd" d="M13.8437 12.8571C14.1701 12.8571 14.4347 13.1769 14.4347 13.5714V22.1429C14.4347 22.5373 14.1701 22.8571 13.8437 22.8571C13.5172 22.8571 13.2526 22.5373 13.2526 22.1429V13.5714C13.2526 13.1769 13.5172 12.8571 13.8437 12.8571Z" fill="#BBA572"/>
</svg>
