<svg width="92" height="82" viewBox="0 0 92 82" fill="none" xmlns="http://www.w3.org/2000/svg">
<line x1="55.2498" y1="23.0096" x2="54.2498" y2="49.0096" stroke="white" stroke-width="0.5"/>
<line x1="59.2498" y1="23.0096" x2="58.2498" y2="49.0096" stroke="white" stroke-width="0.5"/>
<line x1="63.2498" y1="23.0096" x2="62.2498" y2="49.0096" stroke="white" stroke-width="0.5"/>
<line x1="67.2498" y1="23.0104" x2="66.2498" y2="47.0104" stroke="white" stroke-width="0.5"/>
<line x1="71.2498" y1="23.01" x2="70.2498" y2="48.01" stroke="white" stroke-width="0.5"/>
<line x1="79.25" y1="23" x2="79.25" y2="43" stroke="white" stroke-width="0.5"/>
<line x1="75.2498" y1="23.0104" x2="74.2498" y2="47.0104" stroke="white" stroke-width="0.5"/>
<line x1="26.0129" y1="22.7503" x2="84.0129" y2="25.7503" stroke="white" stroke-width="0.5"/>
<line x1="33.0111" y1="40.7502" x2="78.0111" y2="42.7502" stroke="white" stroke-width="0.5"/>
<line x1="38.0128" y1="43.7503" x2="77.0128" y2="45.7503" stroke="white" stroke-width="0.5"/>
<line x1="31.2496" y1="22.0139" x2="30.2496" y2="40.0139" stroke="white" stroke-width="0.5"/>
<line x1="35.2496" y1="22.0139" x2="34.2496" y2="40.0139" stroke="white" stroke-width="0.5"/>
<line x1="39.2497" y1="23.0131" x2="38.2497" y2="42.0131" stroke="white" stroke-width="0.5"/>
<line x1="43.2497" y1="23.0119" x2="42.2497" y2="44.0119" stroke="white" stroke-width="0.5"/>
<line x1="47.2498" y1="23.0104" x2="46.2498" y2="47.0104" stroke="white" stroke-width="0.5"/>
<line x1="51.2498" y1="23.01" x2="50.2498" y2="48.01" stroke="white" stroke-width="0.5"/>
<line x1="25.0136" y1="37.7504" x2="80.0136" y2="40.7504" stroke="white" stroke-width="0.5"/>
<g filter="url(#filter0_d_22_59)">
<path d="M22 54.5001L32.5 57.0001L36 64.5973L41.6885 58.7879L45.5614 64.5973L53.3073 61.3699L57.1802 64.5973H62.9896L72 61.3699L76.5 67.0001" stroke="white" stroke-width="2"/>
</g>
<g filter="url(#filter1_d_22_59)">
<path d="M9.99997 4.91688C27.4375 6.04188 -6.25002 7.81245 9.49998 4.99996C23.6245 2.47774 20.3872 17.4766 24.9057 21.995" stroke="white" stroke-width="2"/>
</g>
<path d="M75.5 81C53 68 31 75 48 65.5L53.5 63L57 65.5H66.5C66.6666 68 80.3981 83.83 75.5 81Z" fill="#6E1D1D" stroke="white"/>
<g filter="url(#filter2_d_22_59)">
<path d="M82.9999 21.9949H25C25 47.8896 26.9824 40.3513 31.3605 39.4232C33.718 39.3072 53.2848 55.8999 64.926 47.1691C67.508 45.2326 70.4243 49.5754 72.6719 48.46C82.6426 43.5124 82.5877 30.1369 82.9999 21.9949Z" stroke="white" stroke-width="2" shape-rendering="crispEdges"/>
</g>
<circle cx="31.3605" cy="49.1055" r="6.45491" fill="black"/>
<circle cx="67.508" cy="55.5605" r="6.45491" fill="black"/>
<circle cx="67.5081" cy="55.5604" r="3.87294" fill="white"/>
<circle cx="31.3606" cy="49.1055" r="3.87294" fill="white"/>
<circle cx="31.8125" cy="48.8198" r="2.8125" fill="black"/>
<circle cx="67.8125" cy="56.6948" r="2.8125" fill="black"/>
<path d="M38.5 19.5V21L50.5 22.5L63 24C68.5 24.5 66.3538 24.8957 73.5 26C82.4328 27.3803 85.1454 27.4415 88.6193 26.5213C90.6437 25.985 91.5969 23.7606 90.6043 22.8404" stroke="#04010D"/>
<path d="M56.5 1.5C40.9 0.300003 38 13.6667 38.5 20.5L65.5 23.5C73.8333 25.8333 90.6 29.1 91 23.5C91.4 17.9 78.8333 19.1667 72.5 20.5C73.6667 14.6667 72.1 2.7 56.5 1.5Z" fill="#2E283D" stroke="#1A0E35"/>
<line x1="25.0129" y1="25.7503" x2="83.0129" y2="28.7503" stroke="white" stroke-width="0.5"/>
<line x1="25.0129" y1="28.7503" x2="83.0129" y2="31.7503" stroke="white" stroke-width="0.5"/>
<line x1="24.0129" y1="31.7503" x2="82.0129" y2="34.7503" stroke="white" stroke-width="0.5"/>
<line x1="25.0131" y1="34.7503" x2="82.0131" y2="37.7503" stroke="white" stroke-width="0.5"/>
<path d="M45.8291 15.9195C45.1862 15.8636 44.6341 15.6871 44.1728 15.39C43.711 15.0982 43.3642 14.7147 43.1325 14.2395C42.9066 13.7595 42.8202 13.2139 42.8734 12.6029C42.9131 12.146 43.0291 11.7358 43.2213 11.3724C43.414 11.0037 43.6684 10.6939 43.9847 10.4431C44.3014 10.1869 44.6604 9.99862 45.0617 9.87827C45.4683 9.75838 45.9027 9.71854 46.365 9.75875C46.8219 9.79849 47.2473 9.92382 47.6412 10.1347C48.0404 10.3461 48.3795 10.6326 48.6585 10.9941C48.6964 11.051 48.7131 11.1059 48.7084 11.1591C48.7029 11.2228 48.6712 11.279 48.6135 11.3275C48.5721 11.3721 48.5169 11.3914 48.4478 11.3853C48.3788 11.3793 48.3226 11.3477 48.2794 11.2904C48.0387 10.9804 47.7495 10.7357 47.4118 10.5565C47.0793 10.3776 46.7165 10.2711 46.3234 10.2369C45.7973 10.1912 45.3174 10.2619 44.8836 10.449C44.4497 10.6361 44.0959 10.9185 43.8222 11.2962C43.5537 11.6744 43.3969 12.1238 43.3516 12.6445C43.3058 13.1705 43.3805 13.6347 43.5757 14.0372C43.7709 14.4396 44.0641 14.7622 44.4552 15.005C44.8516 15.2483 45.3234 15.3937 45.8707 15.4413C46.2479 15.4741 46.6097 15.4387 46.956 15.3349C47.3081 15.2264 47.6229 15.053 47.9006 14.8148C47.9526 14.7712 48.0105 14.7521 48.0742 14.7577C48.138 14.7632 48.1917 14.792 48.2354 14.8439C48.279 14.8959 48.2981 14.9538 48.2925 15.0176C48.2865 15.0866 48.2575 15.143 48.2056 15.1867C47.8879 15.4535 47.5174 15.6514 47.0939 15.7806C46.6758 15.9102 46.2542 15.9565 45.8291 15.9195ZM50.0703 16.184C50.0012 16.178 49.9448 16.149 49.9012 16.097C49.8624 16.0508 49.846 15.9932 49.852 15.9241C49.8614 15.6305 49.8624 15.312 49.8548 14.9687C49.8525 14.6259 49.84 14.2769 49.8174 13.9216C49.8005 13.5614 49.7741 13.2192 49.738 12.8948C49.7025 12.5652 49.661 12.2725 49.6136 12.0167C49.6067 11.9733 49.6039 11.9436 49.6053 11.9277C49.6113 11.8586 49.6399 11.8076 49.6909 11.7745C49.7473 11.742 49.8047 11.7282 49.8631 11.7333C49.9163 11.7379 49.9627 11.758 50.0024 11.7936C50.048 11.8243 50.0764 11.8669 50.0877 11.9215C50.13 12.1125 50.1666 12.3379 50.1975 12.5975C50.2285 12.8572 50.2539 13.119 50.2737 13.3831C50.2941 13.6418 50.3063 13.8704 50.3105 14.0688C50.4479 13.6579 50.6494 13.3114 50.9148 13.0293C51.186 12.7424 51.5015 12.5316 51.8612 12.3969C52.2262 12.2627 52.6132 12.2134 53.0223 12.249C53.3571 12.2781 53.6892 12.3685 54.0186 12.5203C54.1207 12.5774 54.1676 12.6537 54.1593 12.7494C54.1454 12.9088 54.0614 12.9818 53.9073 12.9684C53.8701 12.9651 53.8412 12.9599 53.8204 12.9528C53.5727 12.8456 53.2975 12.7788 52.9946 12.7525C52.5589 12.7146 52.1847 12.7704 51.8719 12.9198C51.5591 13.0693 51.2961 13.2927 51.0829 13.59C50.8749 13.8877 50.7107 14.2375 50.5901 14.6392C50.4695 15.0409 50.3833 15.4778 50.3316 15.9497C50.3242 16.0347 50.292 16.0962 50.2352 16.1341C50.1837 16.1724 50.1287 16.1891 50.0703 16.184ZM57.1031 16.9001C57.0601 16.9017 57.0147 16.9004 56.9669 16.8962C56.9244 16.8925 56.8819 16.8888 56.8394 16.8852C56.3665 16.844 55.9528 16.7063 55.5985 16.4721C55.2436 16.2431 54.9752 15.9441 54.7932 15.5749C54.6112 15.2058 54.5398 14.7954 54.5791 14.3437C54.616 13.9187 54.7324 13.5353 54.928 13.1937C55.1295 12.8471 55.3947 12.5677 55.7237 12.3554C56.0526 12.1431 56.4297 12.0234 56.855 11.9961C56.9144 11.9906 56.9789 11.9882 57.0484 11.9888C57.1179 11.9895 57.1872 11.9929 57.2563 11.9989C57.5432 12.0239 57.8373 12.0896 58.1385 12.1961C58.4456 12.2977 58.6993 12.4269 58.8998 12.5835C58.9315 12.5274 58.977 12.4965 59.0364 12.491C59.0962 12.4801 59.1442 12.4816 59.1805 12.4955C59.2385 12.5059 59.2814 12.5364 59.3091 12.587C59.3368 12.6376 59.3479 12.6948 59.3423 12.7585C59.3264 12.8803 59.3107 12.9993 59.2952 13.1158C59.285 13.2327 59.2749 13.3496 59.2647 13.4664C59.2129 14.0615 59.2095 14.5939 59.2543 15.0635C59.3044 15.5337 59.4366 15.952 59.651 16.3186C59.6787 16.3692 59.6905 16.4184 59.6864 16.4663C59.6808 16.53 59.6496 16.5808 59.5928 16.6187C59.5413 16.6571 59.4863 16.6737 59.4278 16.6686C59.3481 16.6617 59.2847 16.6214 59.2376 16.5477C59.1909 16.4687 59.145 16.3817 59.0997 16.2868C59.0597 16.1923 59.0268 16.1091 59.001 16.0373C58.7568 16.3212 58.4708 16.5318 58.143 16.6693C57.8147 16.8121 57.4681 16.889 57.1031 16.9001ZM56.9839 16.4239C57.3452 16.4554 57.686 16.3833 58.0064 16.2077C58.3322 16.0326 58.6059 15.7781 58.8277 15.444C58.7739 15.1395 58.7455 14.7891 58.7425 14.3927C58.7395 13.9963 58.7591 13.5858 58.8014 13.1612C58.7053 13.035 58.5731 12.9245 58.4047 12.8295C58.2362 12.7346 58.0503 12.6568 57.8468 12.5963C57.6432 12.5358 57.4405 12.4967 57.2386 12.4792C57.1058 12.4676 56.9802 12.4647 56.862 12.4705C56.7437 12.4763 56.6322 12.496 56.5276 12.5298C56.1108 12.6434 55.7676 12.8652 55.4981 13.195C55.2342 13.5201 55.0829 13.9057 55.0441 14.3521C55.0099 14.7452 55.0735 15.0907 55.235 15.3885C55.4018 15.6867 55.6379 15.9268 55.9433 16.1086C56.2491 16.2851 56.596 16.3902 56.9839 16.4239ZM62.9037 17.4447C62.7071 17.4276 62.5069 17.3915 62.3029 17.3363C62.0989 17.281 61.8958 17.2152 61.6937 17.1387C61.5902 17.0976 61.5429 17.0266 61.5516 16.9256C61.566 16.7609 61.6422 16.6846 61.7803 16.6966C61.8122 16.6993 61.8386 16.7043 61.8593 16.7115C62.1137 16.8032 62.3165 16.8717 62.4678 16.917C62.624 16.968 62.7685 16.9993 62.9013 17.0109C63.066 17.0252 63.2251 17.0123 63.3785 16.9721C63.5314 16.9372 63.6594 16.8814 63.7624 16.8047C63.8712 16.7232 63.9307 16.624 63.9409 16.5071C63.9515 16.3849 63.9012 16.2868 63.7898 16.2129C63.6789 16.1336 63.5268 16.0669 63.3334 16.0126C63.1406 15.953 62.9204 15.899 62.673 15.8507C62.4313 15.7976 62.182 15.7411 61.9249 15.6813C61.4173 15.5461 61.0358 15.347 60.7803 15.0839C60.5306 14.8159 60.4275 14.4322 60.4709 13.9327C60.4982 13.6192 60.5915 13.3463 60.7509 13.1139C60.9156 12.882 61.1247 12.694 61.3781 12.5501C61.632 12.4009 61.9141 12.2969 62.2243 12.2383C62.5403 12.1748 62.8631 12.1573 63.1925 12.186C63.4847 12.2114 63.7684 12.2735 64.0435 12.3724C64.3187 12.4713 64.5611 12.6075 64.7709 12.781C64.8406 12.8406 64.8727 12.9023 64.8672 12.966C64.863 13.0138 64.8429 13.0603 64.8069 13.1053C64.7771 13.1402 64.7429 13.164 64.7043 13.1767C64.6715 13.1845 64.6392 13.1871 64.6073 13.1843C64.5648 13.1806 64.5234 13.1636 64.4833 13.1334C64.3132 12.9955 64.1134 12.8924 63.8838 12.8243C63.6546 12.7508 63.4178 12.7034 63.1734 12.6822C62.7909 12.6489 62.4327 12.674 62.0989 12.7574C61.7651 12.8407 61.4901 12.9855 61.2741 13.1915C61.0639 13.3927 60.9449 13.6527 60.9172 13.9715C60.8858 14.3328 60.9634 14.6099 61.1501 14.8028C61.3425 14.9909 61.6376 15.137 62.0354 15.2412C62.3235 15.3144 62.6094 15.3821 62.893 15.4443C63.1825 15.5016 63.444 15.5725 63.6775 15.6571C63.9111 15.7416 64.0941 15.8539 64.2264 15.9939C64.3646 16.129 64.4237 16.3108 64.4038 16.5393C64.3844 16.7625 64.3043 16.9455 64.1633 17.0885C64.0224 17.2315 63.8398 17.3307 63.6155 17.3862C63.396 17.4474 63.1588 17.4669 62.9037 17.4447ZM65.7565 17.6688C65.6077 17.6558 65.5236 17.5762 65.5042 17.43C65.4728 17.1757 65.4629 16.8589 65.4744 16.4798C65.486 16.1008 65.5105 15.696 65.5479 15.2656C65.5817 14.8778 65.6236 14.4879 65.6737 14.0962C65.7243 13.699 65.7784 13.3236 65.8359 12.97C65.8988 12.6168 65.9601 12.3116 66.02 12.0545C66.038 11.9704 66.0749 11.9147 66.1308 11.8875C66.1921 11.8607 66.2488 11.8549 66.301 11.8701C66.3696 11.8815 66.4231 11.9129 66.4614 11.9644C66.4998 12.0159 66.5104 12.0784 66.4933 12.1519C66.4563 12.3307 66.4164 12.544 66.3734 12.7919C66.3309 13.0344 66.2872 13.2903 66.2424 13.5594C66.2033 13.8237 66.1679 14.0776 66.136 14.3211C66.1041 14.5645 66.0805 14.774 66.0653 14.9493C66.273 14.5926 66.5462 14.3139 66.8848 14.1132C67.2288 13.9129 67.5974 13.8298 67.9906 13.864C68.5002 13.9137 68.9155 14.0623 69.2366 14.3097C69.5635 14.5522 69.7953 14.8722 69.9321 15.2695C70.0693 15.6616 70.1162 16.1073 70.0727 16.6068C70.0362 17.0265 69.9475 17.431 69.8066 17.8203C69.7588 17.9392 69.6791 17.9939 69.5675 17.9842C69.4931 17.9777 69.4319 17.9429 69.3838 17.8799C69.3353 17.8221 69.3254 17.7516 69.354 17.6685C69.4744 17.331 69.5498 16.9869 69.5803 16.6362C69.6339 16.0199 69.531 15.5104 69.2716 15.1077C69.018 14.7002 68.5967 14.4655 68.0079 14.4036C67.6838 14.3754 67.3972 14.4388 67.1482 14.5938C66.9044 14.7492 66.6986 14.9615 66.5307 15.2307C66.3747 15.4848 66.2533 15.7419 66.1665 16.002C66.0796 16.2621 66.0237 16.5356 65.9987 16.8226C65.9909 16.9129 65.9854 17.0061 65.9824 17.1022C65.9843 17.2041 65.9861 17.306 65.988 17.4078C65.9912 17.4938 65.9671 17.5559 65.9155 17.5943C65.8636 17.6379 65.8105 17.6628 65.7565 17.6688Z" fill="white"/>
<defs>
<filter id="filter0_d_22_59" x="17.7684" y="53.5273" width="63.5128" height="22.0971" filterUnits="userSpaceOnUse" color-interpolation-filters="sRGB">
<feFlood flood-opacity="0" result="BackgroundImageFix"/>
<feColorMatrix in="SourceAlpha" type="matrix" values="0 0 0 0 0 0 0 0 0 0 0 0 0 0 0 0 0 0 127 0" result="hardAlpha"/>
<feOffset dy="4"/>
<feGaussianBlur stdDeviation="2"/>
<feComposite in2="hardAlpha" operator="out"/>
<feColorMatrix type="matrix" values="0 0 0 0 0 0 0 0 0 0 0 0 0 0 0 0 0 0 0.25 0"/>
<feBlend mode="normal" in2="BackgroundImageFix" result="effect1_dropShadow_22_59"/>
<feBlend mode="normal" in="SourceGraphic" in2="effect1_dropShadow_22_59" result="shape"/>
</filter>
<filter id="filter1_d_22_59" x="0.177856" y="3.71643" width="29.4349" height="26.9857" filterUnits="userSpaceOnUse" color-interpolation-filters="sRGB">
<feFlood flood-opacity="0" result="BackgroundImageFix"/>
<feColorMatrix in="SourceAlpha" type="matrix" values="0 0 0 0 0 0 0 0 0 0 0 0 0 0 0 0 0 0 127 0" result="hardAlpha"/>
<feOffset dy="4"/>
<feGaussianBlur stdDeviation="2"/>
<feComposite in2="hardAlpha" operator="out"/>
<feColorMatrix type="matrix" values="0 0 0 0 0 0 0 0 0 0 0 0 0 0 0 0 0 0 0.25 0"/>
<feBlend mode="normal" in2="BackgroundImageFix" result="effect1_dropShadow_22_59"/>
<feBlend mode="normal" in="SourceGraphic" in2="effect1_dropShadow_22_59" result="shape"/>
</filter>
<filter id="filter2_d_22_59" x="20" y="20.9949" width="68.0518" height="37.7135" filterUnits="userSpaceOnUse" color-interpolation-filters="sRGB">
<feFlood flood-opacity="0" result="BackgroundImageFix"/>
<feColorMatrix in="SourceAlpha" type="matrix" values="0 0 0 0 0 0 0 0 0 0 0 0 0 0 0 0 0 0 127 0" result="hardAlpha"/>
<feOffset dy="4"/>
<feGaussianBlur stdDeviation="2"/>
<feComposite in2="hardAlpha" operator="out"/>
<feColorMatrix type="matrix" values="0 0 0 0 0 0 0 0 0 0 0 0 0 0 0 0 0 0 0.25 0"/>
<feBlend mode="normal" in2="BackgroundImageFix" result="effect1_dropShadow_22_59"/>
<feBlend mode="normal" in="SourceGraphic" in2="effect1_dropShadow_22_59" result="shape"/>
</filter>
</defs>
</svg>
