<svg width="42" height="42" viewBox="0 0 42 42" fill="none" xmlns="http://www.w3.org/2000/svg">
<path fill-rule="evenodd" clip-rule="evenodd" d="M21.0001 4.17741C11.7092 4.17741 4.17747 11.7091 4.17747 21C4.17747 30.2909 11.7092 37.8226 21.0001 37.8226C30.2909 37.8226 37.8226 30.2909 37.8226 21C37.8226 11.7091 30.2909 4.17741 21.0001 4.17741ZM2.82263 21C2.82263 10.9609 10.9609 2.82257 21.0001 2.82257C31.0392 2.82257 39.1775 10.9609 39.1775 21C39.1775 31.0391 31.0392 39.1774 21.0001 39.1774C10.9609 39.1774 2.82263 31.0391 2.82263 21Z" fill="white"/>
<path fill-rule="evenodd" clip-rule="evenodd" d="M26.7291 15.271C26.9936 15.5355 26.9936 15.9644 26.7291 16.229L16.2291 26.729C15.9645 26.9935 15.5356 26.9935 15.271 26.729C15.0065 26.4644 15.0065 26.0355 15.271 25.771L25.771 15.271C26.0356 15.0064 26.4645 15.0064 26.7291 15.271Z" fill="white"/>
<path fill-rule="evenodd" clip-rule="evenodd" d="M15.271 15.271C15.5356 15.0064 15.9645 15.0064 16.2291 15.271L26.7291 25.771C26.9936 26.0355 26.9936 26.4644 26.7291 26.729C26.4645 26.9935 26.0356 26.9935 25.771 26.729L15.271 16.229C15.0065 15.9644 15.0065 15.5355 15.271 15.271Z" fill="white"/>
</svg>
