<svg width="197" height="69" viewBox="0 0 197 69" fill="none" xmlns="http://www.w3.org/2000/svg">
<path d="M6.5 33L79.5 63L36.5 4V63L1 67.5L79.5 17" stroke="white" stroke-width="2"/>
<path d="M102.32 53.43C99.9 53.43 97.78 52.95 95.96 51.99C94.14 51.05 92.72 49.73 91.7 48.03C90.7 46.31 90.2 44.3 90.2 42C90.2 40.28 90.5 38.71 91.1 37.29C91.7 35.85 92.55 34.61 93.65 33.57C94.75 32.51 96.03 31.69 97.49 31.11C98.97 30.53 100.58 30.24 102.32 30.24C104.04 30.24 105.67 30.57 107.21 31.23C108.77 31.89 110.13 32.85 111.29 34.11C111.45 34.31 111.53 34.51 111.53 34.71C111.53 34.95 111.43 35.17 111.23 35.37C111.09 35.55 110.89 35.64 110.63 35.64C110.37 35.64 110.15 35.54 109.97 35.34C108.97 34.26 107.81 33.44 106.49 32.88C105.19 32.32 103.8 32.04 102.32 32.04C100.34 32.04 98.57 32.46 97.01 33.3C95.45 34.14 94.22 35.31 93.32 36.81C92.44 38.31 92 40.04 92 42C92 43.98 92.43 45.69 93.29 47.13C94.15 48.57 95.35 49.68 96.89 50.46C98.45 51.24 100.26 51.63 102.32 51.63C103.74 51.63 105.08 51.38 106.34 50.88C107.62 50.36 108.74 49.61 109.7 48.63C109.88 48.45 110.09 48.36 110.33 48.36C110.57 48.36 110.78 48.45 110.96 48.63C111.14 48.81 111.23 49.02 111.23 49.26C111.23 49.52 111.14 49.74 110.96 49.92C109.86 51.02 108.54 51.88 107 52.5C105.48 53.12 103.92 53.43 102.32 53.43ZM118.25 53.04C117.99 53.04 117.77 52.95 117.59 52.77C117.43 52.61 117.35 52.4 117.35 52.14C117.29 51.04 117.19 49.85 117.05 48.57C116.93 47.29 116.77 45.99 116.57 44.67C116.39 43.33 116.18 42.06 115.94 40.86C115.7 39.64 115.45 38.56 115.19 37.62C115.15 37.46 115.13 37.35 115.13 37.29C115.13 37.03 115.22 36.83 115.4 36.69C115.6 36.55 115.81 36.48 116.03 36.48C116.23 36.48 116.41 36.54 116.57 36.66C116.75 36.76 116.87 36.91 116.93 37.11C117.15 37.81 117.36 38.64 117.56 39.6C117.76 40.56 117.94 41.53 118.1 42.51C118.26 43.47 118.38 44.32 118.46 45.06C118.84 43.48 119.48 42.12 120.38 40.98C121.3 39.82 122.41 38.93 123.71 38.31C125.03 37.69 126.46 37.38 128 37.38C129.26 37.38 130.53 37.61 131.81 38.07C132.21 38.25 132.41 38.52 132.41 38.88C132.41 39.48 132.12 39.78 131.54 39.78C131.4 39.78 131.29 39.77 131.21 39.75C130.25 39.43 129.2 39.27 128.06 39.27C126.42 39.27 125.04 39.6 123.92 40.26C122.8 40.92 121.89 41.84 121.19 43.02C120.51 44.2 120.01 45.56 119.69 47.1C119.37 48.64 119.19 50.3 119.15 52.08C119.15 52.4 119.05 52.64 118.85 52.8C118.67 52.96 118.47 53.04 118.25 53.04ZM144.757 53.43C144.597 53.45 144.427 53.46 144.247 53.46C144.087 53.46 143.927 53.46 143.767 53.46C141.987 53.46 140.397 53.08 138.997 52.32C137.597 51.58 136.497 50.55 135.697 49.23C134.897 47.91 134.497 46.4 134.497 44.7C134.497 43.1 134.807 41.63 135.427 40.29C136.067 38.93 136.967 37.8 138.127 36.9C139.287 36 140.657 35.43 142.237 35.19C142.457 35.15 142.697 35.12 142.957 35.1C143.217 35.08 143.477 35.07 143.737 35.07C144.817 35.07 145.937 35.22 147.097 35.52C148.277 35.8 149.267 36.2 150.067 36.72C150.167 36.5 150.327 36.37 150.547 36.33C150.767 36.27 150.947 36.26 151.087 36.3C151.307 36.32 151.477 36.42 151.597 36.6C151.717 36.78 151.777 36.99 151.777 37.23C151.757 37.69 151.737 38.14 151.717 38.58C151.717 39.02 151.717 39.46 151.717 39.9C151.717 42.14 151.877 44.13 152.197 45.87C152.537 47.61 153.167 49.13 154.087 50.43C154.207 50.61 154.267 50.79 154.267 50.97C154.267 51.21 154.167 51.41 153.967 51.57C153.787 51.73 153.587 51.81 153.367 51.81C153.067 51.81 152.817 51.68 152.617 51.42C152.417 51.14 152.217 50.83 152.017 50.49C151.837 50.15 151.687 49.85 151.567 49.59C150.747 50.73 149.747 51.61 148.567 52.23C147.387 52.87 146.117 53.27 144.757 53.43ZM144.157 51.69C145.517 51.69 146.767 51.31 147.907 50.55C149.067 49.79 150.007 48.75 150.727 47.43C150.427 46.31 150.207 45.01 150.067 43.53C149.927 42.05 149.867 40.51 149.887 38.91C149.487 38.47 148.957 38.1 148.297 37.8C147.637 37.5 146.917 37.27 146.137 37.11C145.357 36.95 144.587 36.87 143.827 36.87C143.327 36.87 142.857 36.9 142.417 36.96C141.977 37.02 141.567 37.13 141.187 37.29C139.667 37.85 138.457 38.79 137.557 40.11C136.677 41.41 136.237 42.9 136.237 44.58C136.237 46.06 136.587 47.33 137.287 48.39C138.007 49.45 138.967 50.27 140.167 50.85C141.367 51.41 142.697 51.69 144.157 51.69ZM166.605 53.58C165.865 53.58 165.105 53.51 164.325 53.37C163.545 53.23 162.765 53.05 161.985 52.83C161.585 52.71 161.385 52.46 161.385 52.08C161.385 51.46 161.645 51.15 162.165 51.15C162.285 51.15 162.385 51.16 162.465 51.18C163.445 51.44 164.225 51.63 164.805 51.75C165.405 51.89 165.955 51.96 166.455 51.96C167.075 51.96 167.665 51.86 168.225 51.66C168.785 51.48 169.245 51.23 169.605 50.91C169.985 50.57 170.175 50.18 170.175 49.74C170.175 49.28 169.955 48.93 169.515 48.69C169.075 48.43 168.485 48.23 167.745 48.09C167.005 47.93 166.165 47.8 165.225 47.7C164.305 47.58 163.355 47.45 162.375 47.31C160.435 46.97 158.945 46.35 157.905 45.45C156.885 44.53 156.375 43.13 156.375 41.25C156.375 40.07 156.635 39.02 157.155 38.1C157.695 37.18 158.415 36.41 159.315 35.79C160.215 35.15 161.235 34.67 162.375 34.35C163.535 34.01 164.735 33.84 165.975 33.84C167.075 33.84 168.155 33.98 169.215 34.26C170.275 34.54 171.225 34.97 172.065 35.55C172.345 35.75 172.485 35.97 172.485 36.21C172.485 36.39 172.425 36.57 172.305 36.75C172.205 36.89 172.085 36.99 171.945 37.05C171.825 37.09 171.705 37.11 171.585 37.11C171.425 37.11 171.265 37.06 171.105 36.96C170.425 36.5 169.645 36.18 168.765 36C167.885 35.8 166.985 35.7 166.065 35.7C164.625 35.7 163.295 35.91 162.075 36.33C160.855 36.75 159.875 37.38 159.135 38.22C158.415 39.04 158.055 40.05 158.055 41.25C158.055 42.61 158.435 43.62 159.195 44.28C159.975 44.92 161.125 45.37 162.645 45.63C163.745 45.81 164.835 45.97 165.915 46.11C167.015 46.23 168.015 46.41 168.915 46.65C169.815 46.89 170.535 47.25 171.075 47.73C171.635 48.19 171.915 48.85 171.915 49.71C171.915 50.55 171.675 51.26 171.195 51.84C170.715 52.42 170.065 52.85 169.245 53.13C168.445 53.43 167.565 53.58 166.605 53.58ZM177.335 53.49C176.775 53.49 176.435 53.22 176.315 52.68C176.115 51.74 175.975 50.56 175.895 49.14C175.815 47.72 175.775 46.2 175.775 44.58C175.775 43.12 175.805 41.65 175.865 40.17C175.925 38.67 176.005 37.25 176.105 35.91C176.225 34.57 176.355 33.41 176.495 32.43C176.535 32.11 176.655 31.89 176.855 31.77C177.075 31.65 177.285 31.61 177.485 31.65C177.745 31.67 177.955 31.77 178.115 31.95C178.275 32.13 178.335 32.36 178.295 32.64C178.215 33.32 178.135 34.13 178.055 35.07C177.975 35.99 177.895 36.96 177.815 37.98C177.755 38.98 177.705 39.94 177.665 40.86C177.625 41.78 177.605 42.57 177.605 43.23C178.265 41.83 179.195 40.7 180.395 39.84C181.615 38.98 182.965 38.55 184.445 38.55C186.365 38.57 187.965 38.99 189.245 39.81C190.545 40.61 191.515 41.73 192.155 43.17C192.795 44.59 193.115 46.24 193.115 48.12C193.115 49.7 192.915 51.24 192.515 52.74C192.375 53.2 192.095 53.43 191.675 53.43C191.395 53.43 191.155 53.32 190.955 53.1C190.755 52.9 190.695 52.64 190.775 52.32C191.115 51.02 191.285 49.71 191.285 48.39C191.285 46.07 190.735 44.2 189.635 42.78C188.555 41.34 186.905 40.6 184.685 40.56C183.465 40.56 182.415 40.89 181.535 41.55C180.675 42.21 179.975 43.07 179.435 44.13C178.935 45.13 178.565 46.13 178.325 47.13C178.085 48.13 177.965 49.17 177.965 50.25C177.965 50.59 177.975 50.94 177.995 51.3C178.035 51.68 178.075 52.06 178.115 52.44C178.155 52.76 178.085 53 177.905 53.16C177.725 53.34 177.535 53.45 177.335 53.49Z" fill="white"/>
</svg>
