<svg width="168" height="229" viewBox="0 0 168 229" fill="none" xmlns="http://www.w3.org/2000/svg">
<path d="M8.6458 1.77075C7.21234 2.95125 6.45345 4.30038 6.45345 5.9868C6.45345 8.60075 7.21233 9.44397 13.958 14.6719C17.5838 17.4545 18.2584 18.382 18.2584 20.743C18.2584 22.2608 18.5957 23.6942 19.0173 23.9472C19.4389 24.2002 19.6075 26.6455 19.4389 29.3438C19.1859 31.9577 18.0898 59.3621 16.9936 90.2236C15.8131 121.085 14.6326 147.225 14.3796 148.405C13.6207 151.525 12.5246 166.787 12.1873 178.339C11.7657 190.903 10.5852 194.698 6.36912 197.143C-0.798184 201.275 -2.14732 211.14 3.50221 217.464C8.89877 223.451 16.6563 223.788 22.8961 218.307C28.0397 213.754 28.6299 206.924 24.4982 200.516C22.8117 197.902 22.6431 196.974 23.402 195.119C23.8236 193.854 23.9922 191.662 23.655 190.229L23.149 187.699L25.9316 190.06C27.5337 191.409 30.6536 194.192 32.9303 196.215L37.062 199.925L35.7129 202.792C34.3637 205.575 34.3637 205.744 35.7972 205.744C36.5561 205.744 59.4071 204.985 86.5585 204.057C113.71 203.13 136.898 202.371 138.163 202.371C140.102 202.371 140.44 202.792 140.946 205.659C141.705 210.381 146.258 215.356 150.896 216.621C156.124 218.139 160.592 216.79 164.387 212.574C173.494 202.455 164.05 186.94 150.896 190.481C147.607 191.409 142.969 195.541 141.873 198.492C141.62 199.335 141.114 199.841 140.861 199.588C140.102 198.829 142.885 194.192 145.246 192.337C146.511 191.325 148.956 190.144 150.727 189.554C152.582 189.048 154.015 188.12 154.015 187.446C154.015 185.001 146.342 187.446 142.379 191.156L139.428 193.939L94.5691 195.203L49.7102 196.553L44.2293 190.819C32.2557 178.255 24.1609 169.148 24.1609 168.136C24.1609 167.63 24.7511 166.956 25.4257 166.619C26.4376 166.281 26.6905 164.426 26.6905 157.343C26.6905 149.248 26.5219 148.49 25.0041 147.984C23.9079 147.646 23.3177 146.719 23.3177 145.201C23.2334 140.226 26.7748 42.0762 27.1964 34.7403C27.6181 27.4887 27.7867 26.9828 28.9672 28.5849C30.485 30.7772 32.7616 30.8615 34.5324 28.8378C36.8091 26.3925 36.2188 24.0315 32.593 20.743C29.8947 18.2977 28.7986 17.8761 26.8592 18.2134C24.4982 18.7193 24.4139 18.5507 23.8236 14.7562C23.4863 11.6363 22.5588 9.86557 19.9448 7.08298C18.0898 5.05927 16.572 3.11987 16.572 2.69827C16.572 1.93938 12.9462 0 11.597 0C11.1754 0 9.91062 0.758896 8.6458 1.77075ZM20.5351 77.7441C20.3664 80.1894 20.2821 78.4187 20.2821 73.781C20.2821 69.1433 20.3664 67.1196 20.5351 69.312C20.7037 71.5043 20.7037 75.2988 20.5351 77.7441ZM19.6919 100.089C19.5232 102.366 19.4389 100.511 19.4389 96.1261C19.4389 91.7414 19.5232 89.8863 19.6919 92.0787C19.8605 94.3554 19.8605 97.8969 19.6919 100.089ZM18.8487 116.532C18.5957 117.206 18.3427 116.953 18.3427 116.026C18.2584 115.098 18.5114 114.592 18.7643 114.93C19.0173 115.183 19.1016 115.942 18.8487 116.532ZM25.0884 152.2C25.0041 153.465 23.0647 153.212 22.6431 151.947C22.3901 151.188 22.8118 150.851 23.655 151.104C24.4982 151.188 25.0884 151.694 25.0884 152.2ZM24.8355 157.428C24.4982 159.283 22.9804 159.114 22.6431 157.343C22.4745 156.5 22.8961 155.994 23.7393 155.994C24.5825 155.994 25.0041 156.584 24.8355 157.428ZM25.0041 163.246C25.0041 164.595 23.655 164.848 22.8961 163.583C22.2215 162.487 23.2334 160.885 24.2452 161.475C24.6668 161.812 25.0041 162.571 25.0041 163.246ZM42.1213 197.817C41.8683 198.492 41.531 198.998 41.2781 198.998C41.0251 198.998 37.062 195.541 32.5087 191.325C25.3414 184.748 24.1609 183.23 24.1609 181.038C24.1609 178.424 24.4138 178.677 33.3519 187.53C38.8328 193.011 42.3743 197.143 42.1213 197.817ZM22.6431 192.252C22.6431 192.505 22.4745 193.601 22.1372 194.613C21.6313 196.215 21.041 196.468 19.6919 196.047C18.68 195.794 16.4033 195.288 14.7169 195.035C12.4402 194.698 11.5127 194.107 11.5127 193.095C11.5127 191.915 12.3559 191.662 16.9936 191.746C20.0292 191.831 22.5588 191.999 22.6431 192.252ZM158.484 195.709C161.098 196.89 163.291 200.684 163.291 204.057C163.291 205.997 162.448 207.599 160.424 209.622C156.629 213.417 152.413 213.585 148.956 210.044C146.595 207.767 144.909 203.636 145.836 202.708C146.089 202.455 149.041 202.202 152.498 202.118C158.147 201.949 158.737 201.781 158.4 200.431C158.063 199.082 157.388 198.914 152.666 199.504C146.68 200.094 145.921 199.335 149.462 196.553C151.907 194.613 155.365 194.276 158.484 195.709ZM138.585 199.167C138.332 199.841 138.079 199.588 138.079 198.661C137.994 197.733 138.247 197.227 138.5 197.564C138.753 197.817 138.838 198.576 138.585 199.167ZM17.8368 201.612C18.3427 202.118 17.7525 204.057 16.319 207.008C14.1267 211.562 12.1873 212.827 11.1754 210.381C10.9225 209.538 11.1754 209.201 12.1873 209.369C12.9462 209.454 13.6207 209.116 13.6207 208.695C13.6207 208.189 13.0305 207.936 12.3559 208.02C11.3441 208.189 11.0911 207.514 11.3441 205.069C11.85 200.01 12.103 199.588 14.7169 200.263C15.9817 200.516 17.3309 201.19 17.8368 201.612ZM9.82629 206.587C9.82629 210.803 10.0793 211.73 11.597 212.489C13.8737 213.754 15.9817 211.899 17.9211 206.924C19.6075 202.624 20.2821 202.286 21.4626 205.575C23.402 211.309 19.6076 216.705 13.6207 216.705C6.7064 216.705 3.08059 209.538 6.95937 203.383C8.98308 200.263 9.82629 201.275 9.82629 206.587Z" fill="black"/>
<path d="M153.439 227.551C153.777 228.057 154.367 228.225 154.789 227.972C155.969 227.213 155.716 226.708 154.198 226.708C153.524 226.708 153.186 227.129 153.439 227.551Z" fill="black"/>
</svg>
