<svg width="228" height="140" viewBox="0 0 228 140" fill="none" xmlns="http://www.w3.org/2000/svg">
<path d="M34.1866 113.252C35.6466 113.344 37.0762 113.405 38.5362 113.405C46.5054 113.405 53.9575 111.945 58.6721 110.424C105.422 95.2154 124.494 87.0942 172.765 65.8025C182.316 61.605 195.334 53.7271 203.182 40.1612C207.288 33.0742 208.535 25.47 206.71 18.7783C205.007 12.5733 200.657 7.34166 194.148 3.69166C186.483 -0.627502 177.449 -0.262502 167.29 4.75625C159.534 8.58875 153.511 14.0029 151.23 16.0408C150.956 16.2842 150.682 16.5275 150.591 16.5883C142.105 23.4625 127.961 28.755 115.521 33.4392C110.928 35.1729 106.578 36.785 102.746 38.3971L101.042 39.1271C84.7391 46.0317 67.8579 53.1492 50.5204 56.13C46.84 56.7687 42.9771 56.6167 38.9012 56.4342C33.1525 56.1908 27.2212 55.9475 21.655 58.0767C13.625 61.1792 3.70914 69.27 1.09331 79.7333C-0.762106 87.155 1.36706 94.6375 7.20706 101.329C13.2904 108.325 22.6283 112.431 34.1866 113.252ZM5.53414 80.8587C7.66331 72.3725 16.0887 65.1333 23.3583 62.335C26.4912 61.1487 29.8675 60.8446 33.4262 60.8446C35.1904 60.8446 36.9546 60.9054 38.7796 60.9967C42.9162 61.1792 47.1746 61.3312 51.3416 60.6317C69.2266 57.59 86.3208 50.3508 102.898 43.3246L104.601 42.5946C108.342 41.0129 112.631 39.4008 117.194 37.6975C129.969 32.8917 144.477 27.4775 153.542 20.1167C153.724 19.9646 153.967 19.7517 154.332 19.4171C156.462 17.5008 162.15 12.3908 169.358 8.83208C178.057 4.51291 185.662 4.1175 191.958 7.64583C197.463 10.7483 200.961 14.885 202.36 19.9646C203.851 25.47 202.756 31.8271 199.288 37.8496C192.049 50.3508 179.913 57.6508 171.001 61.5746C122.821 82.8358 103.81 90.9267 57.2729 106.074C48.6346 108.872 23.3887 112.979 10.6441 98.3483C5.74706 92.7212 4.01331 86.8508 5.53414 80.8587ZM201.935 112.796C210.177 99.1696 209.022 80.2504 199.136 67.7492C198.345 66.7758 198.528 65.3158 199.501 64.5554C200.475 63.7646 201.935 63.9471 202.695 64.9204C208.079 71.7033 211.333 80.4633 211.911 89.5579C212.489 98.6525 210.33 107.747 205.828 115.169C205.402 115.868 204.642 116.264 203.881 116.264C203.486 116.264 203.06 116.142 202.695 115.929C201.6 115.29 201.265 113.861 201.935 112.796ZM76.6179 111.032C71.7512 110.91 66.6412 113.344 63.2954 117.328C60.4666 120.705 59.3108 124.72 60.1016 128.643C60.8316 132.385 63.3562 135.761 66.8541 137.616C68.9225 138.742 71.295 139.289 73.6979 139.289C75.0971 139.289 76.5266 139.107 77.8954 138.711C81.8191 137.586 85.165 134.909 87.0204 131.411C89.2104 127.305 88.9062 121.526 86.2904 117.055C84.07 113.313 80.5416 111.123 76.6179 111.032ZM82.9445 129.252C81.667 131.655 79.2946 133.54 76.5875 134.331C74.0021 135.061 71.2341 134.818 68.9833 133.601C66.7325 132.385 65.0291 130.134 64.5425 127.761C64.0558 125.237 64.8466 122.59 66.7629 120.279C69.1658 117.42 72.8766 115.595 76.2833 115.595C76.3441 115.595 76.4354 115.595 76.4962 115.595C79.6596 115.655 81.4845 117.997 82.3058 119.366C84.1308 122.469 84.4045 126.514 82.9445 129.252ZM172.582 97.8312C173.191 97.9225 173.83 97.9833 174.468 97.9833C177.175 97.9833 179.943 97.0708 182.285 95.3675C185.175 93.2688 187.152 90.1967 187.669 86.9117C188.308 82.8054 186.513 78.03 183.046 74.7146C180.095 71.8858 176.415 70.6387 172.947 71.3383C168.263 72.2812 164.279 75.7183 162.575 80.3417C160.933 84.7217 161.572 89.2842 164.309 92.8733C166.317 95.4892 169.328 97.3142 172.582 97.8312ZM166.834 81.9537C168.02 78.8208 170.697 76.4483 173.86 75.84C176.567 75.2925 178.818 76.9654 179.913 78.03C182.285 80.3112 183.593 83.5962 183.167 86.2121C182.833 88.3108 181.555 90.2879 179.639 91.6871C177.723 93.0862 175.411 93.6642 173.343 93.3296C171.214 92.995 169.237 91.8087 167.929 90.1054C166.165 87.7937 165.769 84.8433 166.834 81.9537ZM209.235 53.6358C208.352 52.7233 208.383 51.2937 209.295 50.4117C210.208 49.5296 211.637 49.56 212.52 50.4725C223.226 61.6658 228.762 77.5433 227.332 92.9342C227.211 94.1204 226.237 95.0025 225.051 95.0025C224.99 95.0025 224.899 95.0025 224.838 95.0025C223.591 94.8808 222.648 93.7858 222.77 92.5083C224.108 78.4254 219.029 63.8862 209.235 53.6358ZM49.9729 74.4104C52.9233 74.3192 53.0146 78.8817 50.0946 78.9729C47.1441 79.0337 47.0225 74.4712 49.9729 74.4104ZM63.2954 69.8175C66.2458 69.7262 66.3371 74.2887 63.4171 74.38C60.4666 74.4408 60.345 69.8783 63.2954 69.8175ZM54.3225 85.695C57.2729 85.6037 57.3641 90.1662 54.4441 90.2575C51.4937 90.3487 51.3721 85.7862 54.3225 85.695ZM68.1925 80.3721C71.1429 80.2808 71.2341 84.8433 68.3141 84.9346C65.3637 84.9954 65.2421 80.4329 68.1925 80.3721ZM148.127 38.61C151.078 38.5187 151.169 43.0812 148.249 43.1725C145.329 43.2637 145.207 38.7012 148.127 38.61ZM160.142 32.5875C163.092 32.4962 163.184 37.0587 160.264 37.15C157.313 37.2108 157.192 32.6483 160.142 32.5875ZM153.602 49.7121C156.553 49.6208 156.644 54.1833 153.724 54.2746C150.774 54.3354 150.652 49.7729 153.602 49.7121ZM166.134 43.6592C169.085 43.5679 169.176 48.1304 166.256 48.2217C163.336 48.3129 163.214 43.7504 166.134 43.6592Z" fill="black"/>
</svg>
